<svg xmlns="http://www.w3.org/2000/svg" xmlns:xlink="http://www.w3.org/1999/xlink" width="100" height="100" viewBox="0 0 100 100">
    <defs>
        <path id="a" d="M36.826 2.222l-28.82 16.64A15.73 15.73 0 0 0 .139 32.486v33.282c0 5.62 3 10.813 7.867 13.624l28.82 16.64a15.735 15.735 0 0 0 15.733 0l28.821-16.64a15.733 15.733 0 0 0 7.867-13.624V32.485a15.73 15.73 0 0 0-7.867-13.622L52.56 2.222A15.72 15.72 0 0 0 44.693.115c-2.716 0-5.432.702-7.867 2.107z"/>
    </defs>
    <g fill="none" fill-rule="evenodd">
        <g transform="translate(5 1)">
            <mask id="b" fill="#fff">
                <use xlink:href="#a"/>
            </mask>
            <path fill="#0F186D" d="M56.09 107.15h53.88V41.874H56.09z" mask="url(#b)"/>
            <path fill="#583889" d="M86.478 91.485l-27.07-18.138.13-.357 52.055 5.441.069.37-24.987 12.697z" mask="url(#b)"/>
            <path fill="#583889" d="M111.573 78.626l-52.056-5.442 27.07 18.138z" mask="url(#b)"/>
            <path fill="#582C7D" d="M47.018 106.936l-.178-.264 12.494-33.555.362-.014 15.617 34.464-.185.276z" mask="url(#b)"/>
            <path fill="#582C7D" d="M59.518 73.184l-12.494 33.557 28.11.906z" mask="url(#b)"/>
            <path fill="#583889" d="M74.956 107.729L59.338 73.266l.289-.243 27.068 18.138.051.275-11.45 16.324z" mask="url(#b)"/>
            <path fill="#583889" d="M59.518 73.184l15.616 34.463 11.452-16.324z" mask="url(#b)"/>
            <path fill="#5C518F" d="M59.498 73.38l-.16-.273 12.494-29.021.309-.07 39.56 34.463-.147.342z" mask="url(#b)"/>
            <path fill="#5C518F" d="M72.011 44.162L59.518 73.185l52.056 5.441z" mask="url(#b)"/>
            <path fill="#719560" d="M71.882 44.31l.19-.333 43.728 14.51.129.226-4.165 19.952-.32.108z" mask="url(#b)"/>
            <path fill="#719560" d="M72.011 44.162l39.563 34.464 4.164-19.952z" mask="url(#b)"/>
            <path fill="#719560" d="M71.949 44.349l.007-.374 55.178-16.325.24.256-11.453 30.835-.244.117z" mask="url(#b)"/>
            <path fill="#719560" d="M127.19 27.838L72.012 44.162l43.727 14.512z" mask="url(#b)"/>
            <path fill="#583889" d="M24.06 99.672l-.058-.343 35.4-26.3.3.224-12.495 33.556-.243.117z" mask="url(#b)"/>
            <path fill="#583889" d="M59.518 73.184L24.12 99.485l22.904 7.256z" mask="url(#b)"/>
            <path fill="#5C518F" d="M23.936 99.555L17.69 83.231l.138-.26 41.644-9.976.162.347-35.398 26.3z" mask="url(#b)"/>
            <path fill="#5C518F" d="M17.872 83.16l6.247 16.325 35.4-26.3z" mask="url(#b)"/>
            <path fill="#657079" d="M48.935 54.232l.094-.272 22.904-9.977.257.257-12.493 29.022-.352.017z" mask="url(#b)"/>
            <path fill="#657079" d="M72.011 44.162L49.106 54.14l10.412 19.046z" mask="url(#b)"/>
            <path fill="#626681" d="M17.739 83.018l31.233-29.023.305.05L59.69 73.091l-.125.284-41.646 9.976z" mask="url(#b)"/>
            <path fill="#626681" d="M49.106 54.139L17.873 83.16l41.645-9.976z" mask="url(#b)"/>
            <path fill="#77A853" d="M47.996 35.276l-.049-.34 22.905-17.23.314.148 1.04 26.301-.265.19z" mask="url(#b)"/>
            <path fill="#77A853" d="M70.97 17.862L48.064 35.093l23.945 9.07z" mask="url(#b)"/>
            <path fill="#6A816E" d="M48.91 54.15l-1.04-19.046.264-.194 23.947 9.07.009.362-22.906 9.977z" mask="url(#b)"/>
            <path fill="#6A816E" d="M72.011 44.162l-23.946-9.068 1.041 19.045z" mask="url(#b)"/>
            <path fill="#6A816E" d="M17.679 83.137l4.163-34.463.233-.169 27.07 5.443.094.334-31.233 29.022z" mask="url(#b)"/>
            <path fill="#6A816E" d="M49.106 54.139l-27.069-5.442-4.164 34.464z" mask="url(#b)"/>
            <path fill="#719560" d="M71.816 44.17l-1.041-26.3.229-.2 56.22 9.976.021.38L72.067 44.35z" mask="url(#b)"/>
            <path fill="#719560" d="M70.97 17.862l1.04 26.3 55.18-16.324z" mask="url(#b)"/>
            <path fill="#B7CD3E" d="M70.935 18.054l-.127-.303L83.302-.39l.267-.053 43.727 28.115-.14.357z" mask="url(#b)"/>
            <path fill="#B7CD3E" d="M83.463-.277L70.97 17.861l56.221 9.977z" mask="url(#b)"/>
            <path fill="#605C87" d="M-16.532 89.7l.012-.382 34.358-6.348.217.121 6.247 16.326-.23.26z" mask="url(#b)"/>
            <path fill="#605C87" d="M-16.485 89.51l40.604 9.976-6.247-16.326z" mask="url(#b)"/>
            <path fill="#719560" d="M21.999 48.89l-.053-.366L47.974 34.92l.286.162 1.042 19.046-.235.203z" mask="url(#b)"/>
            <path fill="#719560" d="M48.065 35.093L22.037 48.697l27.07 5.441z" mask="url(#b)"/>
            <path fill="#77A853" d="M21.843 48.674l3.123-25.394.284-.15 22.904 11.79.002.347L22.128 48.87z" mask="url(#b)"/>
            <path fill="#77A853" d="M25.16 23.303l-3.124 25.394 26.029-13.604z" mask="url(#b)"/>
            <path fill="#7FB947" d="M25.07 23.477l.067-.368 45.81-5.442.14.351L48.184 35.25l-.207.017z" mask="url(#b)"/>
            <path fill="#7FB947" d="M70.97 17.862l-45.81 5.44 22.905 11.791z" mask="url(#b)"/>
            <path fill="#687775" d="M-16.667 89.438l10.412-26.302.307-.077 23.945 19.952-.09.342-34.356 6.35z" mask="url(#b)"/>
            <path fill="#687775" d="M-6.074 63.208l-10.41 26.301 34.356-6.348z" mask="url(#b)"/>
            <path fill="#719560" d="M-6.198 63.359l.035-.324 28.11-14.51.284.196-4.165 34.464-.318.126z" mask="url(#b)"/>
            <path fill="#719560" d="M22.037 48.697l-28.11 14.51 23.945 19.954z" mask="url(#b)"/>
            <path fill="#77A853" d="M-6.268 63.195l2.081-29.929.295-.155 26.029 15.42-.01.34-28.11 14.511z" mask="url(#b)"/>
            <path fill="#77A853" d="M-3.991 33.28l-2.083 29.928 28.111-14.51z" mask="url(#b)"/>
            <path fill="#AACA40" d="M25.028 23.16L58.344-7.677l.308.058 12.493 25.394-.152.28-45.81 5.442z" mask="url(#b)"/>
            <path fill="#AACA40" d="M58.476-7.533L25.16 23.304l45.81-5.443z" mask="url(#b)"/>
            <path fill="#C6D23C" d="M70.794 17.948L58.301-7.446l.23-.274L83.517-.465l.107.298-12.494 18.14z" mask="url(#b)"/>
            <path fill="#C6D23C" d="M83.463-.277L58.476-7.533 70.97 17.861z" mask="url(#b)"/>
            <path fill="#7FB947" d="M-4.091 33.447l.036-.352 29.151-9.977.258.209-3.122 25.395-.295.144z" mask="url(#b)"/>
            <path fill="#7FB947" d="M25.16 23.303L-3.991 33.28l26.027 15.417z" mask="url(#b)"/>
            <path fill="#AACA40" d="M-4.187 33.28V6.071l.295-.17L25.26 23.135l-.035.354-29.152 9.976z" mask="url(#b)"/>
            <path fill="#AACA40" d="M-3.991 6.071V33.28l29.15-9.975z" mask="url(#b)"/>
            <path fill="#C9D63B" d="M24.966 23.322l-3.124-32.65.204-.214 36.44 1.815.123.338-33.316 30.835z" mask="url(#b)"/>
            <path fill="#C9D63B" d="M58.476-7.533l-36.44-1.813 3.124 32.65z" mask="url(#b)"/>
            <path fill="#D1D739" d="M-4.091 6.24v-.336L21.937-9.515l.295.15 3.123 32.65-.294.186z" mask="url(#b)"/>
            <path fill="#D1D739" d="M22.037-9.347L-3.992 6.071 25.16 23.303z" mask="url(#b)"/>
        </g>
        <path fill="#FFF" fill-rule="nonzero" d="M64.618 30.065a6.105 6.105 0 0 1 6.097 6.097v28.456a6.105 6.105 0 0 1-6.098 6.097H36.164a6.105 6.105 0 0 1-6.098-6.098V36.164a6.105 6.105 0 0 1 6.098-6.098h28.455zm0-4.065H36.163C30.55 26 26 30.55 26 36.162v28.456c0 5.611 4.55 10.162 10.163 10.162h28.455c5.613 0 10.162-4.55 10.162-10.163V36.164C74.78 30.55 70.231 26 64.617 26zm-16.26 16.26h-2.033v-4.065h2.033v2.033h4.065v2.032H50.39v2.033h-2.032V42.26zm4.065 24.39v-2.032H50.39v2.032h2.033zM50.39 36.163V34.13h-4.065v2.033h2.033v2.032h2.032v-2.032zm16.26-2.033v12.195h-2.032v-2.032h-8.13V34.13H66.65zm-2.032 8.13v-6.097H58.52v6.097h6.098zm-28.455 4.065H34.13v2.033h4.065v-2.033h-2.032zm0 6.098h2.032v2.032h2.033v-6.097h-2.033v2.032H34.13v4.065h2.033v-2.032zm10.162 2.032v4.065h2.033v-4.065h-2.033zm8.13-20.325h-2.032v6.098h2.032V34.13zm0 10.163V42.26h-2.032v2.033h2.032zm6.098-4.065h2.032v-2.033h-2.032v2.033zm-20.325-2.033h-2.033v2.033h2.033v-2.033zm4.065-4.065v10.163H34.13V34.13h10.163zm-2.033 2.033h-6.097v6.097h6.097v-6.097zm18.293 10.162v2.033H58.52v-2.033h-4.065v2.033h-2.032v-2.033h-6.098v-2.032h-2.032v2.032H42.26v2.033h2.033v4.065h2.032V50.39h2.033v4.065h2.032V50.39h6.098v2.033h-4.065v2.032h4.065v2.033h2.032V50.39h2.033v2.033h2.032v4.065h2.033v-2.033h2.032v-2.032h-2.032V50.39h-2.033v-2.032h2.033v-2.033h-4.065zm-22.358 16.26h2.033v-2.032h-2.033v2.032zm-4.065-6.097h10.163V66.65H34.13V56.488zm2.033 8.13h6.097V58.52h-6.097v6.098zm24.39-6.098v-2.032H58.52v2.032h2.033zm0 2.033H58.52v2.032h-2.032v-2.032h-2.033V58.52h2.033v-2.032h-4.065v-2.033H50.39v4.065h-2.032v2.033h-2.033v6.097h2.033v-2.032h2.032v-2.033h4.065v4.065h2.033v-2.032h2.032v2.032h4.065v-2.032h2.033v-2.033h-4.065v-2.032zM42.26 54.455h2.033v-2.032H42.26v2.032zm20.325 4.065v2.033h2.033v2.032h2.032v-6.097h-2.032v2.032h-2.033zm4.065 8.13v-2.032h-2.032v2.032h2.032zm0-16.26v-2.032h-2.032v2.032h2.032z"/>
    </g>
</svg>
