<?xml version="1.0" encoding="UTF-8"?>
<svg width="100pt" height="100pt" version="1.1" viewBox="0 0 100 100" xmlns="http://www.w3.org/2000/svg">
 <g>
  <path d="m35.438 9.7812h-15.594c-5.1562 0-9.375 4.2188-9.375 9.375v15.594c0 5.1562 4.2188 9.375 9.375 9.375h15.594c5.1562 0 9.375-4.2188 9.375-9.375v-15.594c0-5.1562-4.2188-9.375-9.375-9.375zm3.125 24.969c0 1.7188-1.4062 3.125-3.125 3.125h-15.594c-1.7188 0-3.125-1.4062-3.125-3.125v-15.594c0-1.7188 1.4062-3.125 3.125-3.125h15.594c1.7188 0 3.125 1.4062 3.125 3.125z"/>
  <path d="m27.625 21.938c-2.7812 0-5.0312 2.25-5.0312 5.0312s2.25 5.0312 5.0312 5.0312 5.0312-2.25 5.0312-5.0312-2.25-5.0312-5.0312-5.0312z"/>
  <path d="m35.438 52.812h-15.594c-5.1562 0-9.375 4.2188-9.375 9.375v15.594c0 5.1562 4.2188 9.375 9.375 9.375h15.594c5.1562 0 9.375-4.2188 9.375-9.375v-15.594c0-5.1562-4.2188-9.375-9.375-9.375zm3.125 24.969c0 1.7188-1.4062 3.125-3.125 3.125h-15.594c-1.7188 0-3.125-1.4062-3.125-3.125v-15.594c0-1.7188 1.4062-3.125 3.125-3.125h15.594c1.7188 0 3.125 1.4062 3.125 3.125z"/>
  <path d="m27.625 64.938c-2.7812 0-5.0312 2.25-5.0312 5.0312s2.25 5.0312 5.0312 5.0312 5.0312-2.25 5.0312-5.0312-2.25-5.0312-5.0312-5.0312z"/>
  <path d="m59.469 76.812c-2.7812 0-5.0312 2.25-5.0312 5.0312s2.25 5.0312 5.0312 5.0312 5.0312-2.25 5.0312-5.0312-2.25-5.0312-5.0312-5.0312z"/>
  <path d="m79.375 9.7812h-15.594c-5.1562 0-9.375 4.2188-9.375 9.375v15.594c0 5.1562 4.2188 9.375 9.375 9.375h15.594c5.1562 0 9.375-4.2188 9.375-9.375v-15.594c0-5.1562-4.2188-9.375-9.375-9.375zm3.125 24.969c0 1.7188-1.4062 3.125-3.125 3.125h-15.594c-1.7188 0-3.125-1.4062-3.125-3.125v-15.594c0-1.7188 1.4062-3.125 3.125-3.125h15.594c1.7188 0 3.125 1.4062 3.125 3.125z"/>
  <path d="m71.562 21.938c-2.7812 0-5.0312 2.25-5.0312 5.0312s2.25 5.0312 5.0312 5.0312 5.0312-2.25 5.0312-5.0312-2.25-5.0312-5.0312-5.0312z"/>
  <path d="m64.875 64.625h-4.2188v-8.6875c0-1.7188-1.4062-3.125-3.125-3.125s-3.125 1.4062-3.125 3.125v11.812c0 1.7188 1.4062 3.125 3.125 3.125h7.3438c1.7188 0 3.125-1.4062 3.125-3.125s-1.4062-3.125-3.125-3.125z"/>
  <path d="m84.281 68.344h-10.781c-1.7188 0-3.125 1.4062-3.125 3.125v11.812c0 1.7188 1.4062 3.125 3.125 3.125s3.125-1.4062 3.125-3.125v-8.6875h7.6562c1.7188 0 3.125-1.4062 3.125-3.125s-1.4062-3.125-3.125-3.125z"/>
  <path d="m84.281 53.281h-10.781c-1.7188 0-3.125 1.4062-3.125 3.125s1.4062 3.125 3.125 3.125h10.781c1.7188 0 3.125-1.4062 3.125-3.125s-1.4062-3.125-3.125-3.125z"/>
 </g>
</svg>
